<svg width="24" height="24" viewBox="0 0 24 24" fill="none" xmlns="http://www.w3.org/2000/svg">
<path d="M19 0H5C2.239 0 0 2.239 0 5V19C0 21.761 2.239 24 5 24H19C21.762 24 24 21.761 24 19V5C24 2.239 21.762 0 19 0ZM17 5C17.553 5 18 5.448 18 6C18 6.552 17.553 7 17 7C16.447 7 16 6.552 16 6C16 5.448 16.447 5 17 5ZM15 7C15.553 7 16 7.448 16 8C16 8.552 15.553 9 15 9C14.447 9 14 8.552 14 8C14 7.448 14.447 7 15 7ZM4 9V7H6V5H8V7H10V9H8V11H6V9H4ZM9 19C7.896 19 7 18.105 7 17C7 15.895 7.896 15 9 15C10.104 15 11 15.895 11 17C11 18.105 10.104 19 9 19ZM15 19C13.896 19 13 18.105 13 17C13 15.895 13.896 15 15 15C16.104 15 17 15.895 17 17C17 18.105 16.104 19 15 19ZM17 11C16.447 11 16 10.552 16 10C16 9.448 16.447 9 17 9C17.553 9 18 9.448 18 10C18 10.552 17.553 11 17 11ZM19 9C18.447 9 18 8.552 18 8C18 7.448 18.447 7 19 7C19.553 7 20 7.448 20 8C20 8.552 19.553 9 19 9Z" fill="#F3F3F3"/>
</svg>
