<svg width="24" height="24" viewBox="0 0 24 24" fill="none" xmlns="http://www.w3.org/2000/svg">
<g clip-path="url(#clip0)">
<path d="M13.895 10.623L15.265 8.569C15.615 8.044 16.325 7.902 16.85 8.252C17.374 8.602 17.517 9.312 17.166 9.837L15.797 11.891C15.447 12.416 14.737 12.558 14.212 12.208C13.687 11.858 13.545 11.148 13.895 10.623V10.623ZM12.014 9.939C12.539 10.29 13.25 10.147 13.601 9.622L14.984 7.548C15.336 7.022 15.193 6.311 14.667 5.96C14.142 5.609 13.431 5.752 13.08 6.278L11.697 8.352C11.345 8.878 11.487 9.589 12.014 9.939ZM19.021 13.888L17.809 15.705C17.487 16.188 17.618 16.841 18.101 17.163C18.584 17.485 19.237 17.354 19.559 16.871L20.77 15.054C21.093 14.571 20.962 13.918 20.479 13.596C19.996 13.274 19.343 13.404 19.021 13.888V13.888ZM15.95 13.048C15.6 13.571 15.742 14.279 16.265 14.628C16.789 14.977 17.496 14.836 17.845 14.312L19.157 12.344C19.507 11.82 19.365 11.113 18.841 10.764C18.318 10.415 17.611 10.556 17.262 11.08L15.95 13.048ZM21.615 24C21.006 24 20.395 23.768 19.929 23.302L12.907 16.158C13.995 14.955 13.467 12.879 11.725 12.57L8.651 12.024L7.593 10.966C6.992 10.366 6.166 10.05 5.32 10.095C3.938 10.169 2.533 9.678 1.478 8.623C0.492 7.636 0 6.344 0 5.051C0 4.491 0.092 3.931 0.277 3.396L3.491 6.61C4.744 6.684 6.683 4.745 6.609 3.491L3.396 0.277C3.931 0.092 4.49 0 5.05 0C6.343 0 7.636 0.493 8.622 1.479C9.677 2.534 10.167 3.939 10.094 5.321C10.049 6.167 10.365 6.995 10.965 7.594L10.992 7.621C9.749 9.704 11.425 11.131 12.798 11.078C12.551 12.259 13.815 13.489 14.9 13.489C14.631 14.529 15.436 15.614 16.689 15.86C16.184 17.682 18.947 19.627 20.546 17.175L23.302 19.93C23.768 20.396 24 21.006 24 21.616C24 22.932 22.934 24 21.615 24ZM22.5 21.5C22.5 20.948 22.052 20.5 21.499 20.5C20.947 20.5 20.499 20.948 20.499 21.5C20.499 22.052 20.947 22.5 21.499 22.5C22.052 22.5 22.5 22.052 22.5 21.5ZM12.869 17.561C12.202 16.873 11.168 16.822 9.285 16.697C8.999 16.678 8.823 16.862 8.8 17.14L8.342 21.348C8.342 21.348 11.136 23.236 12.282 24C13.346 22.079 14.981 21.963 16.203 20.998L12.869 17.561ZM11.247 15.869C12.704 15.869 12.925 13.805 11.55 13.561C6.379 12.642 6.651 12.672 6.481 12.672C5.846 12.672 5.295 13.125 5.172 13.75L4.726 17.696C4.665 18.327 4.871 18.872 5.359 19.228C5.846 19.582 7.385 20.677 7.385 20.677C7.385 20.677 7.713 17.842 7.805 17.026C7.898 16.211 8.356 15.648 9.229 15.691C9.321 15.695 11.088 15.869 11.247 15.869V15.869Z" fill="#F3F3F3"/>
</g>
<defs>
<clipPath id="clip0">
<rect width="24" height="24" fill="white"/>
</clipPath>
</defs>
</svg>
